<svg width="50" height="39" viewBox="0 0 50 39" fill="none" xmlns="http://www.w3.org/2000/svg">
<path d="M0 28.3148C0.26375 27.7192 0.726922 27.5238 1.367 27.527C4.2779 27.5462 7.19202 27.5302 10.1029 27.543C10.4407 27.543 10.6047 27.4694 10.7237 27.1171C12.9013 20.4851 19.228 16.3061 26.2206 16.8569C32.2161 17.3309 37.3625 21.3658 39.2377 27.0595C39.2859 27.21 39.3406 27.3605 39.3985 27.5366H39.9421C42.853 27.5366 45.7671 27.5366 48.678 27.5398C48.9032 27.5398 49.138 27.5558 49.3471 27.6295C49.8006 27.7896 50.0547 28.2379 49.9968 28.7087C49.9421 29.1698 49.5754 29.5349 49.0962 29.5925C48.9193 29.6149 48.7391 29.6117 48.559 29.6117C32.8594 29.6117 17.1631 29.6117 1.46349 29.6213C0.823416 29.6213 0.31843 29.4868 0.00321647 28.9008V28.318L0 28.3148ZM12.8048 27.5238H37.1534C36.0437 23.7067 31.7658 18.9096 25.0177 18.8872C18.4754 18.8648 14.0109 23.4441 12.8048 27.5238Z" fill="white"/>
<path d="M24.9984 32.18C30.6465 32.18 36.2946 32.18 41.9395 32.18C42.1518 32.18 42.3641 32.1736 42.5732 32.1992C43.1071 32.2632 43.477 32.6987 43.4674 33.2367C43.4609 33.7459 43.091 34.1686 42.5796 34.2358C42.4027 34.2583 42.2226 34.2519 42.0425 34.2519C30.6819 34.2519 19.3213 34.2519 7.96397 34.2519C7.00225 34.2519 6.52299 33.8964 6.53264 33.1919C6.54229 32.5066 7.00546 32.1768 7.95754 32.1768C13.6378 32.1768 19.3181 32.1768 24.9984 32.1768V32.18Z" fill="white"/>
<path d="M24.9984 36.7978C27.9576 36.7978 30.9167 36.7978 33.8759 36.7978C34.0849 36.7978 34.3004 36.8042 34.5031 36.8554C34.9791 36.9739 35.2654 37.3742 35.2589 37.8545C35.2525 38.3157 34.9727 38.6999 34.5191 38.8216C34.3326 38.8697 34.1332 38.8825 33.9402 38.8825C27.9736 38.8825 22.0071 38.8825 16.0405 38.8825C15.9601 38.8825 15.8765 38.8825 15.7961 38.8825C15.1528 38.8408 14.7346 38.4342 14.7314 37.8481C14.7282 37.2589 15.1399 36.8426 15.78 36.7978C15.9247 36.7882 16.0727 36.7946 16.2174 36.7946C19.1444 36.7946 22.0714 36.7946 24.9984 36.7946V36.7978Z" fill="white"/>
<path d="M24.175 5.41191C24.175 5.25499 24.175 5.10128 24.175 4.94437C24.175 3.63783 24.175 2.33128 24.175 1.02474C24.175 0.867827 24.1846 0.701306 24.2297 0.550798C24.3229 0.22096 24.6414 0 24.9791 0C25.32 0 25.632 0.227364 25.7221 0.563607C25.7639 0.714116 25.7736 0.880636 25.7736 1.03755C25.7768 2.36971 25.7736 3.69867 25.7736 5.03083C25.7736 5.15893 25.7736 5.29022 25.7736 5.41831C25.8025 5.43432 25.8315 5.44713 25.8636 5.46315C26.1081 5.21016 26.3461 4.95078 26.6002 4.7074C26.9894 4.33273 27.4558 4.31352 27.7839 4.64015C28.1184 4.97319 28.1023 5.43432 27.7228 5.8186C27.0183 6.52952 26.3107 7.23723 25.5967 7.93533C25.1978 8.32601 24.7572 8.31961 24.3551 7.92572C23.6411 7.22762 22.9302 6.52311 22.2258 5.8122C21.8463 5.43112 21.8334 4.96679 22.1743 4.63375C22.5089 4.30711 22.972 4.32953 23.358 4.7106C23.6057 4.95078 23.8308 5.21336 24.0688 5.46315C24.1042 5.44713 24.1428 5.42792 24.1782 5.41191H24.175Z" fill="white"/>
<path d="M7.70987 20.8567C7.82567 20.9015 8.0476 20.9624 8.24059 21.0713C8.9064 21.4395 9.56899 21.8206 10.2252 22.2081C10.8266 22.5635 11.0132 23.1592 10.7076 23.6876C10.4053 24.2095 9.7845 24.3472 9.1798 24.0078C8.45931 23.6011 7.73882 23.1944 7.03442 22.7621C6.60341 22.4963 6.45867 22.032 6.60984 21.5804C6.7578 21.1449 7.15343 20.8535 7.70987 20.8567Z" fill="white"/>
<path d="M17.2274 16.7161C17.2017 17.2285 16.9797 17.5615 16.5326 17.7184C16.0855 17.8754 15.6513 17.7793 15.4004 17.395C14.8922 16.6072 14.4194 15.7938 13.982 14.9644C13.7407 14.5033 13.9595 13.9653 14.3937 13.7027C14.8408 13.4337 15.4262 13.4818 15.706 13.9141C16.2271 14.7147 16.6838 15.5537 17.1566 16.3831C17.2177 16.4888 17.2081 16.6329 17.2242 16.7193L17.2274 16.7161Z" fill="white"/>
<path d="M25.9987 13.1743C25.9987 13.5938 26.018 14.0133 25.9923 14.4328C25.9601 15.0317 25.5227 15.4288 24.9501 15.4192C24.384 15.4096 23.9434 14.9965 23.9305 14.4008C23.9112 13.5618 23.9112 12.7228 23.9305 11.8838C23.9466 11.2914 24.3905 10.8783 24.9566 10.8751C25.5291 10.8687 25.9601 11.2658 25.9923 11.8678C26.0148 12.3033 25.9955 12.7388 25.9955 13.1743H25.9987Z" fill="white"/>
<path d="M43.2904 22.08C43.0781 22.3586 42.9173 22.7141 42.6407 22.8998C42.0135 23.3257 41.338 23.6844 40.6658 24.0431C40.1126 24.3409 39.5207 24.1744 39.2312 23.678C38.9321 23.1688 39.0769 22.5956 39.6301 22.2626C40.2927 21.8591 40.9649 21.4652 41.6565 21.1097C42.3866 20.7319 43.1746 21.209 43.2904 22.08Z" fill="white"/>
<path d="M33.9273 17.805C33.0235 17.789 32.4831 17.0364 32.7983 16.3992C33.1747 15.6338 33.6153 14.8941 34.0785 14.1735C34.3776 13.7092 34.9566 13.6292 35.4198 13.8981C35.8733 14.1607 36.0823 14.7179 35.8347 15.1983C35.4551 15.9284 35.0499 16.6521 34.5931 17.3342C34.4259 17.584 34.0688 17.7089 33.9305 17.805H33.9273Z" fill="white"/>
</svg>
